<?xml version="1.0" standalone="no"?>
<!DOCTYPE svg PUBLIC "-//W3C//DTD SVG 20010904//EN" "http://www.w3.org/TR/2001/REC-SVG-20010904/DTD/svg10.dtd">
<svg version="1.0" xmlns="http://www.w3.org/2000/svg" width="128.000000pt" height="128.000000pt" viewBox="0 0 128.000000 128.000000" preserveAspectRatio="xMidYMid meet">
  <metadata>
    Created by potrace 1.10, written by Peter Selinger 2001-2011
  </metadata>
  <g transform="translate(0.000000,128.000000) scale(0.100000,-0.100000)" fill="#000000" stroke="none">
    <path d="M260 1140 c-19 -19 -20 -33 -20 -500 0 -467 1 -481 20 -500 19 -19
33 -20 380 -20 347 0 361 1 380 20 19 19 20 33 20 500 0 467 -1 481 -20 500
-19 19 -33 20 -380 20 -347 0 -361 -1 -380 -20z m738 -42 c3 -17 -19 -18 -357
-18 -294 0 -361 2 -361 13 0 8 3 17 7 20 4 4 164 6 357 5 325 -3 351 -4 354
-20z m0 -400 l2 -338 -80 0 c-109 0 -120 -11 -120 -120 l0 -80 -257 2 -258 3
-3 425 c-1 234 0 431 3 438 3 10 80 12 357 10 l353 -3 3 -337z m0 -455 l-3
-78 -77 -3 -78 -3 0 74 c0 40 3 77 7 80 3 4 40 7 80 7 l74 0 -3 -77z" />
    <path d="M528 873 l-68 -67 -35 34 c-27 26 -38 31 -47 22 -9 -9 -3 -21 27 -52
21 -22 46 -40 55 -40 22 0 164 145 156 159 -12 18 -18 14 -88 -56z" />
    <path d="M680 900 c0 -19 7 -20 120 -20 113 0 120 1 120 20 0 19 -7 20 -120
20 -113 0 -120 -1 -120 -20z" />
    <path d="M680 820 c0 -19 7 -20 120 -20 113 0 120 1 120 20 0 19 -7 20 -120
20 -113 0 -120 -1 -120 -20z" />
    <path d="M528 553 l-68 -67 -35 34 c-27 26 -38 31 -47 22 -9 -9 -3 -21 27 -52
21 -22 46 -40 55 -40 22 0 164 145 156 159 -12 18 -18 14 -88 -56z" />
    <path d="M680 580 c0 -19 7 -20 120 -20 113 0 120 1 120 20 0 19 -7 20 -120
20 -113 0 -120 -1 -120 -20z" />
    <path d="M680 500 c0 -19 7 -20 120 -20 113 0 120 1 120 20 0 19 -7 20 -120
20 -113 0 -120 -1 -120 -20z" />
    <path d="M884 266 c-3 -8 -4 -25 -2 -38 2 -19 9 -23 38 -23 33 0 35 2 35 35 0
32 -3 35 -33 38 -21 2 -34 -2 -38 -12z m56 -30 c0 -14 -24 -29 -33 -19 -3 3
-3 11 0 19 7 18 33 18 33 0z" />
  </g>
</svg>